<svg width="20" height="20" viewBox="0 0 20 20" fill="none" xmlns="http://www.w3.org/2000/svg">
    <path d="M17.8664 9.20829L10.208 16.8666C9.26985 17.8048 7.99737 18.3319 6.67055 18.3319C5.34373 18.3319 4.07125 17.8048 3.13305 16.8666C2.19485 15.9284 1.66777 14.6559 1.66777 13.3291C1.66777 12.0023 2.19485 10.7298 3.13305 9.79162L10.7914 2.13329C11.4169 1.50782 12.2652 1.15643 13.1497 1.15643C14.0343 1.15643 14.8826 1.50782 15.508 2.13329C16.1335 2.75876 16.4849 3.60707 16.4849 4.49162C16.4849 5.37617 16.1335 6.22448 15.508 6.84995L7.84138 14.5083C7.52865 14.821 7.10449 14.9967 6.66222 14.9967C6.21994 14.9967 5.79578 14.821 5.48305 14.5083C5.17032 14.1956 4.99462 13.7714 4.99462 13.3291C4.99462 12.8868 5.17032 12.4627 5.48305 12.15L12.558 5.08329" stroke="currentColor" stroke-width="1.5" stroke-linecap="round" stroke-linejoin="round"/>
</svg>