<svg width="20" height="20" viewBox="0 0 20 20" fill="none" xmlns="http://www.w3.org/2000/svg">
    <path d="M18.3333 7.09999V3.31666C18.3333 2.14166 17.8 1.66666 16.475 1.66666H13.1083C11.7833 1.66666 11.25 2.14166 11.25 3.31666V7.09166C11.25 8.27499 11.7833 8.74166 13.1083 8.74166H16.475C17.8 8.74999 18.3333 8.27499 18.3333 7.09999Z" stroke="currentColor" stroke-width="1.5" stroke-linecap="round" stroke-linejoin="round"/>
    <path d="M18.3333 16.475V13.1083C18.3333 11.7833 17.8 11.25 16.475 11.25H13.1083C11.7833 11.25 11.25 11.7833 11.25 13.1083V16.475C11.25 17.8 11.7833 18.3333 13.1083 18.3333H16.475C17.8 18.3333 18.3333 17.8 18.3333 16.475Z" stroke="currentColor" stroke-width="1.5" stroke-linecap="round" stroke-linejoin="round"/>
    <path d="M8.75 7.09999V3.31666C8.75 2.14166 8.21667 1.66666 6.89167 1.66666H3.52501C2.20001 1.66666 1.66667 2.14166 1.66667 3.31666V7.09166C1.66667 8.27499 2.20001 8.74166 3.52501 8.74166H6.89167C8.21667 8.74999 8.75 8.27499 8.75 7.09999Z" stroke="currentColor" stroke-width="1.5" stroke-linecap="round" stroke-linejoin="round"/>
    <path d="M8.75 16.475V13.1083C8.75 11.7833 8.21667 11.25 6.89167 11.25H3.52501C2.20001 11.25 1.66667 11.7833 1.66667 13.1083V16.475C1.66667 17.8 2.20001 18.3333 3.52501 18.3333H6.89167C8.21667 18.3333 8.75 17.8 8.75 16.475Z" stroke="currentColor" stroke-width="1.5" stroke-linecap="round" stroke-linejoin="round"/>
</svg>
