<svg width="18" height="20" viewBox="0 0 18 20" fill="none" xmlns="http://www.w3.org/2000/svg">
    <path d="M6.63107 17.3095V14.7539C6.63105 14.1039 7.16099 13.5757 7.81757 13.5713H10.2226C10.8823 13.5713 11.4171 14.1008 11.4171 14.7539V14.7539V17.3175C11.417 17.8694 11.8619 18.3204 12.4193 18.3334H14.0226C15.621 18.3334 16.9167 17.0506 16.9167 15.4682V15.4682V8.19822C16.9082 7.57571 16.6129 6.99114 16.115 6.61088L10.6315 2.23777C9.67083 1.47633 8.30523 1.47633 7.34457 2.23777L1.88508 6.61882C1.38527 6.99754 1.08954 7.58308 1.08339 8.20615V15.4682C1.08339 17.0506 2.37912 18.3334 3.97748 18.3334H5.58086C6.15202 18.3334 6.61503 17.875 6.61503 17.3095V17.3095" stroke="currentColor" stroke-width="1.5" stroke-linecap="round" stroke-linejoin="round"/>
</svg>