<svg width="20" height="20" viewBox="0 0 20 20" fill="none" xmlns="http://www.w3.org/2000/svg">
    <path d="M7.63305 9.05838C7.54971 9.05005 7.44971 9.05005 7.35805 9.05838C5.37471 8.99172 3.79971 7.36672 3.79971 5.36672C3.79971 3.32505 5.44971 1.66672 7.49971 1.66672C9.54138 1.66672 11.1997 3.32505 11.1997 5.36672C11.1914 7.36672 9.61638 8.99172 7.63305 9.05838Z" stroke="currentColor" stroke-width="1.5" stroke-linecap="round" stroke-linejoin="round"/>
    <path d="M13.6737 3.33328C15.2903 3.33328 16.5903 4.64162 16.5903 6.24995C16.5903 7.82495 15.3403 9.10828 13.782 9.16662C13.7153 9.15828 13.6403 9.15828 13.5653 9.16662" stroke="currentColor" stroke-width="1.5" stroke-linecap="round" stroke-linejoin="round"/>
    <path d="M3.4674 12.1333C1.45073 13.4833 1.45073 15.6833 3.4674 17.0249C5.75906 18.5583 9.5174 18.5583 11.8091 17.0249C13.8257 15.6749 13.8257 13.4749 11.8091 12.1333C9.52573 10.6083 5.7674 10.6083 3.4674 12.1333Z" stroke="currentColor" stroke-width="1.5" stroke-linecap="round" stroke-linejoin="round"/>
    <path d="M15.2841 16.6667C15.8841 16.5417 16.4508 16.3001 16.9174 15.9417C18.2174 14.9667 18.2174 13.3584 16.9174 12.3834C16.4591 12.0334 15.9008 11.8001 15.3091 11.6667" stroke="currentColor" stroke-width="1.5" stroke-linecap="round" stroke-linejoin="round"/>
</svg>
